Safe 2012 CAM READNFO XViD - INSPiRAL

IMDB: 
 
http://www.imdb.com/title/tt1656190/

SOURCES:

VIDEO - RUSSIAN CAMRIP THANKS
AUDIO - Santanas THANKS
SUBS  - None Add

STATS:

Video
ID                                       : 0
Format                                   : MPEG-4 Visual
Format profile                           : Advanced Simple@L5
Format settings, BVOP                    : 2
Format settings, QPel                    : No
Format settings, GMC                     : No warppoints
Format settings, Matrix                  : Default (MPEG)
Muxing mode                              : Packed bitstream
Codec ID                                 : XVID
Codec ID/Hint                            : XviD
Duration                                 : 1h 27mn
Bit rate                                 : 2 117 Kbps
Width                                    : 720 pixels
Height                                   : 288 pixels
Display aspect ratio                     : 2.500
Frame rate                               : 25.000 fps
Color space                              : YUV
Chroma subsampling                       : 4:2:0
Bit depth                                : 8 bits
Scan type                                : Progressive
Compression mode                         : Lossy
Bits/(Pixel*Frame)                       : 0.408
Stream size                              : 1.29 GiB (95%)
Writing library                          : XviD 64

Audio
ID                                       : 1
Format                                   : MPEG Audio
Format version                           : Version 2
Format profile                           : Layer 3
Mode                                     : Joint stereo
Mode extension                           : Intensity Stereo + MS Stereo
Codec ID                                 : 55
Codec ID/Hint                            : MP3
Duration                                 : 1h 27mn
Bit rate mode                            : Constant
Bit rate                                 : 96.0 Kbps
Channel(s)                               : 2 channels
Sampling rate                            : 22.05 KHz
Compression mode                         : Lossy
Stream size                              : 59.9 MiB (4%)
Alignment                                : Split accross interleaves
Interleave, duration                     : 40 ms (1.00 video frame)
Interleave, preload duration             : 500 ms


NOTES:

Right video was poor if honest  ...AR look wrong,some camera movement,LOADS of noise and worse thing ...bloody auto focus issues.
Audio was nice,but needed some lovin,but was clear and easy too hear.

Video we changed the res,used a HQ smoother,had too remove loads of chroma as the video couldn't handle it.....now looks black and white in parts,but which certain things still full of colour ....pass maybe its meant too be like that lol.
Auto focus wrecks this too be honest with and theres nothing we can do about that ...

Audio cleaned and remastered and then syncd too our encode ....seems in sync but due too the auto focus was hard too guess in parts,but think we did it.


Poster:

 
http://i.imgur.com/ZYJQg.jpg


Screenshots:

 
http://i.imgur.com/gFtm9.jpg


ENJOY!